<?xml version="1.0" encoding="UTF-8" standalone="no"?>
<!-- Created with Inkscape (http://www.inkscape.org/) -->

<svg
   width="64"
   height="64"
   viewBox="0 0 16.933333 16.933334"
   version="1.1"
   id="svg5"
   inkscape:version="1.1 (c68e22c387, 2021-05-23)"
   sodipodi:docname="logo.svg"
   xmlns:inkscape="http://www.inkscape.org/namespaces/inkscape"
   xmlns:sodipodi="http://sodipodi.sourceforge.net/DTD/sodipodi-0.dtd"
   xmlns="http://www.w3.org/2000/svg"
   xmlns:svg="http://www.w3.org/2000/svg">
  <sodipodi:namedview
     id="namedview7"
     pagecolor="#ffffff"
     bordercolor="#666666"
     borderopacity="1.0"
     inkscape:pageshadow="2"
     inkscape:pageopacity="0.0"
     inkscape:pagecheckerboard="0"
     inkscape:document-units="mm"
     showgrid="false"
     units="px"
     inkscape:zoom="4.192802"
     inkscape:cx="47.343042"
     inkscape:cy="15.860515"
     inkscape:window-width="1920"
     inkscape:window-height="1017"
     inkscape:window-x="1912"
     inkscape:window-y="-8"
     inkscape:window-maximized="1"
     inkscape:current-layer="layer1" />
  <defs
     id="defs2" />
  <g
     inkscape:label="Layer 1"
     inkscape:groupmode="layer"
     id="layer1">
    <path
       id="path846"
       style="fill:#000000;fill-opacity:1;stroke:none;stroke-width:7.55906;stop-color:#000000"
       d="M 16 0 L 16 32 A 15.999999 15.999999 0 0 0 32 16 A 15.999999 15.999999 0 0 0 16 0 z M 40 0 L 40 32 A 15.999999 15.999999 0 0 0 56 16 A 15.999999 15.999999 0 0 0 40 0 z M 8 32 L 8 64 A 15.999999 15.999999 0 0 0 24 48 A 15.999999 15.999999 0 0 0 8 32 z M 32 32 L 32 64 A 15.999999 15.999999 0 0 0 48 48 A 15.999999 15.999999 0 0 0 32 32 z "
       transform="scale(0.26458333)" />
  </g>
</svg>
